<svg id="visual" viewBox="0 0 1920 1080" width="1920" height="1080" xmlns="http://www.w3.org/2000/svg" xmlns:xlink="http://www.w3.org/1999/xlink" version="1.1"><rect x="0" y="0" width="1920" height="1080" fill="#FFFFFF"></rect><defs><linearGradient id="grad1_0" x1="43.8%" y1="100%" x2="100%" y2="0%"><stop offset="14.444444444444446%" stop-color="#5e81ac" stop-opacity="1"></stop><stop offset="85.55555555555554%" stop-color="#5e81ac" stop-opacity="1"></stop></linearGradient></defs><defs><linearGradient id="grad1_1" x1="43.8%" y1="100%" x2="100%" y2="0%"><stop offset="14.444444444444446%" stop-color="#5e81ac" stop-opacity="1"></stop><stop offset="85.55555555555554%" stop-color="#afbed5" stop-opacity="1"></stop></linearGradient></defs><defs><linearGradient id="grad1_2" x1="43.8%" y1="100%" x2="100%" y2="0%"><stop offset="14.444444444444446%" stop-color="#ffffff" stop-opacity="1"></stop><stop offset="85.55555555555554%" stop-color="#afbed5" stop-opacity="1"></stop></linearGradient></defs><defs><linearGradient id="grad2_0" x1="0%" y1="100%" x2="56.3%" y2="0%"><stop offset="14.444444444444446%" stop-color="#5e81ac" stop-opacity="1"></stop><stop offset="85.55555555555554%" stop-color="#5e81ac" stop-opacity="1"></stop></linearGradient></defs><defs><linearGradient id="grad2_1" x1="0%" y1="100%" x2="56.3%" y2="0%"><stop offset="14.444444444444446%" stop-color="#afbed5" stop-opacity="1"></stop><stop offset="85.55555555555554%" stop-color="#5e81ac" stop-opacity="1"></stop></linearGradient></defs><defs><linearGradient id="grad2_2" x1="0%" y1="100%" x2="56.3%" y2="0%"><stop offset="14.444444444444446%" stop-color="#afbed5" stop-opacity="1"></stop><stop offset="85.55555555555554%" stop-color="#ffffff" stop-opacity="1"></stop></linearGradient></defs><g transform="translate(1920, 1080)"><path d="M-432 0C-419.2 -41.4 -406.4 -82.8 -396.6 -128.9C-386.8 -174.9 -380 -225.7 -349.5 -253.9C-319 -282.1 -264.7 -287.7 -226.3 -311.5C-187.8 -335.3 -165.2 -377.3 -130.1 -400.4C-95 -423.5 -47.5 -427.8 0 -432L0 0Z" fill="#d7deea"></path><path d="M-288 0C-279.5 -27.6 -270.9 -55.2 -264.4 -85.9C-257.9 -116.6 -253.3 -150.5 -233 -169.3C-212.7 -188.1 -176.5 -191.8 -150.9 -207.6C-125.2 -223.5 -110.1 -251.5 -86.7 -266.9C-63.3 -282.3 -31.7 -285.2 0 -288L0 0Z" fill="#879fc0"></path><path d="M-144 0C-139.7 -13.8 -135.5 -27.6 -132.2 -43C-128.9 -58.3 -126.7 -75.2 -116.5 -84.6C-106.3 -94 -88.2 -95.9 -75.4 -103.8C-62.6 -111.8 -55.1 -125.8 -43.4 -133.5C-31.7 -141.2 -15.8 -142.6 0 -144L0 0Z" fill="#5e81ac"></path></g><g transform="translate(0, 0)"><path d="M432 0C433.8 48.8 435.7 97.7 410.9 133.5C386 169.3 334.5 192.1 298.5 216.9C262.5 241.7 242 268.4 216.9 298.5C191.8 328.7 162.1 362.4 125.2 385.2C88.2 408 44.1 420 0 432L0 0Z" fill="#d7deea"></path><path d="M288 0C289.2 32.6 290.5 65.1 273.9 89C257.4 112.9 223 128.1 199 144.6C175 161.1 161.3 178.9 144.6 199C127.9 219.1 108 241.6 83.4 256.8C58.8 272 29.4 280 0 288L0 0Z" fill="#879fc0"></path><path d="M144 0C144.6 16.3 145.2 32.6 137 44.5C128.7 56.4 111.5 64 99.5 72.3C87.5 80.6 80.7 89.5 72.3 99.5C63.9 109.6 54 120.8 41.7 128.4C29.4 136 14.7 140 0 144L0 0Z" fill="#5e81ac"></path></g></svg>